<?xml version="1.0" encoding="utf-8"?>
<!-- Generator: Adobe Illustrator 16.0.0, SVG Export Plug-In . SVG Version: 6.00 Build 0)  -->
<!DOCTYPE svg PUBLIC "-//W3C//DTD SVG 1.1//EN" "http://www.w3.org/Graphics/SVG/1.1/DTD/svg11.dtd">
<svg version="1.1" id="Layer_1" xmlns="http://www.w3.org/2000/svg" xmlns:xlink="http://www.w3.org/1999/xlink" x="0px" y="0px"
	 width="128px" height="128px" viewBox="0 0 128 128" enable-background="new 0 0 128 128" xml:space="preserve">
<path d="M111.929,84.766C111.944,84.789,111.886,84.803,111.929,84.766C111.931,84.769,111.922,84.771,111.929,84.766z
	 M100.863,62.565c0.155,0.06,0.307,0.121,0.474,0.175C101.179,62.667,101.021,62.61,100.863,62.565z M71.524,47.206
	C71.455,47.212,71.512,47.208,71.524,47.206C71.514,47.207,71.524,47.206,71.524,47.206z M92.136,54.861
	c-1.159-1.373-2.085,1.205-2.01,2.054c0.179,2.01,1.725,2.467,3.354,3.047C93.979,58.107,93.341,56.289,92.136,54.861
	C91.711,54.358,93.287,56.225,92.136,54.861z M89.402,65.09c-1.323-1.123-3.201,0.033-1.729,1.317
	C88.682,67.286,90.872,66.335,89.402,65.09C88.765,64.549,89.869,65.485,89.402,65.09z M94.385,62.697
	c-1.242,0.668-1.305,1.451-0.226,2.342C95.064,64.339,95.063,63.55,94.385,62.697z M73.458,52.25
	c-4.875-1.121-9.78,4.004-8.369,8.881c1.036-1.71,1.796-3.542,3.099-5.089C69.663,54.291,71.495,53.335,73.458,52.25
	C73.044,52.154,73.146,52.422,73.458,52.25z M78.835,62.501c-1.799-0.754-3.77-0.881-5.595-0.144
	c-1.019,0.411-3.987,1.93-3.535,3.434c1.513-0.765,2.948-1.745,4.588-2.226c1.816-0.533,3.518-0.081,5.335-0.244
	C79.363,63.048,79.099,62.775,78.835,62.501C75.653,61.167,79.099,62.774,78.835,62.501z M89.562,47.753
	c0.938-0.188,1.895-0.102,2.8,0.196c0.328,0.108,1.854,1.138,2.15,0.985c0.911-0.472-1.754-2.228-2.146-2.297
	c-0.505-0.088-3.427-0.094-3.238,1.009C89.241,47.78,89.386,47.815,89.562,47.753C91.218,47.422,89.272,47.812,89.562,47.753z
	 M117.558,87.472c-5.215,13.056-12.55,24.607-25.793,30.603c-12.033,5.447-26.506,5.056-38.194-1.059
	c-5.963-3.119-11.102-7.642-15.151-13.002c-1.074-1.423-2.074-2.901-3-4.425c-0.711-1.169-1.362-3.318-2.526-4.09
	c-1.015-0.673-2.832-0.464-4.012-0.778c-1.624-0.433-3.169-1.145-4.56-2.087c-5.025-3.409-7.762-9.633-6.949-15.64
	c0.14-1.038,1.225-3.154,0.859-4.117c-0.425-1.119-3.045-2.286-3.97-3.132c-2.118-1.938-3.72-4.392-4.108-7.276
	c-0.787-5.85,2.551-12.143,5.029-17.217c2.992-6.126,6.653-11.933,11.013-17.181c4.327-5.208,9.333-9.841,14.867-13.743
	c5.154-3.635,12.065-8.695,18.691-8.201c3.237,0.241,6.086,1.916,8.295,4.232c1.392,1.459,1.844,1.401,3.592,0.437
	c1.891-1.042,3.822-2.02,5.831-2.813c5.728-2.264,14.088-3.374,18.726,1.716c4.521,4.961,2.305,12.504-0.307,17.803
	c-0.86,1.747-1.856,3.425-2.934,5.047c-1.204,1.813-0.547,2.201,0.636,3.885c2.234,3.182,4.176,6.633,5.174,10.414
	c0.628,2.378,0.859,4.85,0.667,7.303c-0.147,1.888,0.135,3.867,1.597,5.209c1.502,1.378,3.668,1.783,5.332,2.959
	c2.055,1.452,3.769,3.318,5.766,4.84c1.575,1.201,2.153,3.248,1.84,5.153c-0.339,2.056-1.737,3.113-1.2,5.291
	C113.766,81.658,119.604,82.348,117.558,87.472C114.13,96.053,118.705,84.6,117.558,87.472z M20.219,69.523
	c1.456-1.458,2.934-2.482,3.509-4.482c0.475-1.652,0.978-3.292,1.608-4.892c1.467-3.73,3.422-7.302,5.548-10.694
	c4.11-6.558,9.167-12.6,14.746-17.957c2.728-2.619,5.626-5.062,8.705-7.26c0.697-0.497,3.646-1.849,3.381-2.946
	c-0.303-1.257-2.57-2.903-3.516-3.727c-1.663-1.449-2.619-6.372,0.574-3.827c1.357,1.082,2.618,2.316,3.903,3.482
	c1.067,0.968,3.061,2.142,3.503,3.574c0.66-0.518,1.32-1.035,1.98-1.553c-1.17-1.058-2.339-2.116-3.508-3.175
	c1.759,0.541,4.719,2.25,6.19,1.214c-0.919-0.807-0.512-2.922-0.898-3.336c0.6,0.583,1.194,1.171,1.788,1.761
	c0.98,0.975,1.845-0.226,2.876-0.896c-1.827-1.586-3.728-3.093-5.453-4.793c-1.319-1.301-2.401-0.453-3.931-0.648
	c-4.447-0.569-8.836,1.639-12.664,3.695c-7.53,4.045-13.784,9.999-19.259,16.49c-5.655,6.704-10.988,13.967-14.027,22.271
	c-1.237,3.379-2.68,7.558-1.818,11.198C13.836,64.625,18.42,71.328,20.219,69.523C21.238,68.503,19.877,69.866,20.219,69.523z
	 M39.928,85.433c-0.006-0.02-0.012-0.039-0.018-0.058c-0.376,1.505-5.147,1.254-6.237,0.975c-2.386-0.613-4.356-2.396-5.055-4.778
	c-1.583-5.391,3.952-12.883,9.813-9.228c0.472-1.226,1.364-2.721,1.501-4.03c0.129-1.226-3.325-1.897-4.178-2.095
	c-3.238-0.748-6.689,0.049-9.501,1.758c-4.832,2.938-7.212,8.619-5.98,14.129c1.229,5.492,5.861,9.403,11.33,10.303
	C36.396,93.196,42.242,91.346,39.928,85.433C39.922,85.413,41.833,90.299,39.928,85.433z M33.019,82.208
	c-0.708-0.092-1.487-1.703-1.879-2.202c-0.323,0.28-0.456,0.653-0.399,1.117c-0.809-0.722-1.36-1.511-1.965-2.418
	c-0.542,2.826,1.903,5.927,4.377,6.878c1.174,0.451,2.464,0.588,3.708,0.409c0.631-0.09,1.25-0.262,1.835-0.513
	c1.521-0.646,0.958-0.934,0.473-2.504c-0.081,0.159-0.786,1.876-0.916,1.803c-0.935-0.529-1.817-2.153-2.558-2.975
	c-0.054,0.583-0.109,1.16-0.195,1.74c-0.94-0.607-1.29-2.174-2.344-2.463C33.098,81.297,33.583,82.282,33.019,82.208
	C32.514,82.143,33.617,82.287,33.019,82.208z M58.622,33.552c0.392-0.252,0.777-0.513,1.157-0.781
	c-0.778-0.071-1.521-0.132-2.303-0.12c1.582-1.402,3.915-2.125,5.943-2.641c1.21-0.308,2.449-0.502,3.697-0.563
	c0.711-0.035,2.152,0.364,2.693-0.289c-0.766-0.483-1.502-0.953-2.319-1.345c2.731-1.327,5.659-0.543,8.536-0.583
	c-0.05-0.553-0.387-0.82-0.729-1.239c1.904,0.279,4.423,0.767,6.098,1.741c0.598,0.348,0.402-0.724,0.765-0.897
	c0.619-0.295,2.499,0.926,3.034,1.21c0.926,0.491,1.807,1.077,2.564,1.805c0.583,0.561,1.184,2.038,1.88,2.356
	c0.87,0.398,3.625-5.355,3.984-6.101c1.668-3.457,3.526-8.298,1.931-12.117c-1.524-3.646-6.273-4.693-9.789-4.101
	c-5.286,0.891-10.022,3.681-14.517,6.462c-4.572,2.831-8.874,6.085-12.903,9.643c-4,3.531-7.735,7.356-11.266,11.354
	c-3.604,4.082-6.734,8.575-10.348,12.631c2.646-5.414,7.416-10.488,11.305-15.063c4.248-4.999,8.84-9.716,13.884-13.917
	c-2.957-2.652-5.915-5.304-8.873-7.956c0.209,1.479,0.082,2.892,1.188,3.945c1.205,1.147,2.396,2.312,3.668,3.386
	c2.254,1.901-2.392,3.826-3.792,4.863c-4.625,3.425-8.958,7.251-12.864,11.481c-3.671,3.976-6.958,8.305-9.78,12.923
	c-2.909,4.762-6.289,10.413-7.225,15.983c1.96-0.992,3.994-1.974,6.21-2.198c2.369-0.239,3.122,0.332,4.186-2.059
	c1.732-3.89,3.808-7.628,6.251-11.117C45.592,43.535,51.648,37.859,58.622,33.552C59.018,33.308,47.426,40.467,58.622,33.552z
	 M81.775,111.415c-0.804-0.129-1.598-0.318-2.377-0.552c-0.923-0.274-1.149,0.319-2.021,0.309c-0.709-0.009-1.348-0.572-1.881-0.967
	c-0.949-0.704-2.034-0.795-2.967-1.395c-0.381-0.245-0.706-1.118-1.089-0.933c-0.755,0.358-1.479-0.3-1.908-0.816
	c-1.12-0.914-1.998-2.608-2.629-3.881c-0.403-0.812-0.741-1.654-1.016-2.519c-0.472-1.486-0.175-0.505-1.123-0.914
	c-1.439-0.62-1.979-4.063-2.207-5.422c-0.104-0.618-0.145-1.151-0.189-1.774c-0.462,0.151-0.62-0.32-0.752-0.639
	c-0.562-1.364-0.227-3.151-0.187-4.593c-0.373,1.009-1.275,3.125-1.631,0.766c-0.33-2.174,0.313-4.402,1.424-6.276
	c1.924-3.246,4.938-4.481,7.902-6.458c-4.614-1.576-8.953-3.56-10.995-8.312c-2.24-5.212-1.402-11.821,2.313-16.181
	c4.154-4.875,9.906-4.355,15.682-3.782c3.357,0.333,5.905-0.393,8.568-2.495c2.253-1.777,4.42-4.536,7.647-3.678
	c-1.374-4.701-5.038-5.822-9.458-5.959c-1.844-0.057-3.64-0.064-5.35,0.583c-0.974,0.368-1.596-0.037-1.201-1.087
	c-7.666,4.884-17.119,7.032-23.182,14.18c-5.136,6.056-6.376,14.028-4.603,21.633c1.014-3.541,2.042,2.974,2.209,3.819
	c1.245-1.285,2.315,3.656,2.585,4.377c0.851-2.447,3.058,2.395,3.228,2.968c0.418,1.411-0.783,2.55-1.367,3.755
	c-0.638,1.315-1.137,2.699-1.458,4.126c-1.365,6.057,0.896,12.024,5.208,16.339c0.004,0.014-0.605-2.87,0.592-1.736
	c1.128,1.091,2.007,2.339,2.982,3.564c0.59-1.447,4.449,2.854,4.908,3.272c-0.053-1.299,4.335,0.222,4.928,0.315
	C75.472,111.542,78.638,111.681,81.775,111.415C81.002,111.291,77.647,111.765,81.775,111.415z M62.713,89.104
	C62.787,89.087,62.679,89.047,62.713,89.104C62.718,89.103,62.708,89.095,62.713,89.104z M111.712,83.205
	c-0.482-1.044-1.351-1.913-1.493-3.1c-0.144-1.204,0.208-2.246-0.632-3.301c-0.943-1.187-4.563,2.466-5.529,3.107
	c-5.05,3.36-10.829,5.403-16.799,6.364c-1.5,0.242-3.01,0.419-4.523,0.542c-1.338,0.108-3.159-0.18-4.257,0.603
	c-2.197,1.565-2.038,3.562,0.861,3.72c3.197,0.173,6.346,0.151,9.516-0.358c3.397-0.546,6.686-2.136,10.056-2.505
	c-3.428,3.155-9.88,4.206-14.375,4.47c-1.271,0.075-2.545,0.076-3.814,0.009c-0.917-0.049-2.633-0.698-3.505-0.481
	c-0.999,0.249,0.191,2.019,0.397,2.396c0.911,1.672,2.501,1.898,4.243,2.135c10.961,1.483,22.447-4.652,30.077-12.028
	c-3.014,5.838-9.898,9.87-16.038,11.881c-3.116,1.021-6.377,1.561-9.652,1.65c-3.243,0.09-7.456,0.189-10.298-1.611
	c-4.222-2.675-4.098-9.92,1.16-11.071c3.233-0.709,6.643-0.394,9.922-0.88c3.54-0.524,7.014-1.49,10.291-2.93
	c2.793-1.227,16.872-8.812,13.018-12.577c-1.202-1.173-2.679-2.126-3.963-3.259c-1.287-1.136-2.738-2.068-4.261-2.854
	c-2.966-1.531-4.821-2.666-5.262-6.25c-0.44-3.576,0.215-7.275-0.98-10.748c-0.973-2.827-4.909-5.329-7.724-3.18
	c-2.441,1.863-4.466,4.131-7.545,4.968c-3.431,0.933-7.123-0.332-10.604-0.317c-7.618,0.031-11.835,6.609-12.083,13.666
	c0.044,2.937,1.024,6.164,3.133,8.375c2.642,2.771,5.641,3.572,9.034,4.902c1.729,0.678-1.745,2.438-2.324,2.825
	c-2.054,1.375-3.748,2.876-5.221,4.855c-0.94,1.262,0.563,2.273,0.56,3.578c-0.002,0.823-0.176,1.635-0.197,2.457
	c-0.022,0.876,0.527,0.848,0.451,1.574c-0.314,3.024,0.436,6.326,1.854,8.988c0.044-0.941,0.155-1.868,0.262-2.804
	c0.874,2.275,1.403,4.683,2.499,6.873c0.693,1.387,4.027,6.771,2.556,1.974c1.032,1.187,2.233,3.683,3.635,2.814
	c0.483-0.299,2.512,2.881,3.348,2.463c-0.204-0.364-0.38-0.74-0.528-1.129c1.054-0.013,2.153,0.696,3.181,0.976
	c1.439,0.392,2.99,0.674,4.488,0.616c2.388-0.082,4.653-0.747,6.983-1.185c5.032-0.947,9.415-3.394,13.298-6.758
	c3.877-3.36,6.669-7.751,8.339-12.584C114.405,86.778,116.889,83.539,111.712,83.205C111.134,81.953,115.652,83.459,111.712,83.205z
	 M61.318,13.74c0.342,0.086,0.685,0.172,1.027,0.258c-0.152-1.294-0.408-2.555-0.666-3.833
	C60.931,10.676,60.215,13.461,61.318,13.74C61.661,13.826,61.228,13.717,61.318,13.74z"/>
</svg>
